# xmcd CD database file
#
# Track frame offsets:
#	187
#	18602
#	32895
#	51155
#	72922
#	92332
#	111375
#	124457
#	141332
#	159432
#	176607
#	194255
#	211070
#
# Disc length: 3108 seconds
#
# Revision: 0
# Processed by: cddbd v1.4PL0 Copyright (c) Steve Scherf et al.
# Submitted via: CDex 1.51
#
DISCID=bb0c220d
DTITLE=George and Ira Gershwin - A Musical Celebration (1of2)
DYEAR=1994
DGENRE=Jazz
TTITLE0=Overture
TTITLE1=Kickin' The Clouds Away
TTITLE2=Could You Use Me?
TTITLE3=Delishious
TTITLE4=Somebody Loves Me
TTITLE5=I've Got A Crush On You
TTITLE6=Let's Call The Whole Thing Off
TTITLE7=I Got Plenty O' Nuthin'
TTITLE8=Isn't It A Pity?
TTITLE9=Embraceable You
TTITLE10=Do What You Do
TTITLE11=That Certain Feeling
TTITLE12=I Got Rhythm
EXTD=YEAR: 1994
EXTT0=
EXTT1=
EXTT2=
EXTT3=
EXTT4=
EXTT5=
EXTT6=
EXTT7=
EXTT8=
EXTT9=
EXTT10=
EXTT11=
EXTT12=
PLAYORDER=
